<svg xmlns="http://www.w3.org/2000/svg" xml:space="preserve" viewBox="-1.59 0 200.48 255.5"><path d="M199.84 64.125c-59.082 10.613-93.938-29.812-99.59-36.957-5.652 7.145-40.527 47.57-99.61 36.957 0 0-14.949 125.363 99.61 192.242 114.54-66.879 99.59-192.242 99.59-192.242" style="fill:#e38f00;fill-opacity:1;fill-rule:evenodd;stroke:none" transform="translate(-1.588 -.87)"/><path d="M4.996 69.336a168 168 0 0 0-.242 9.152c0 12.676 1.258 32.942 7.418 55.875 13.523 50.399 43.176 89.586 88.058 116.586 44.922-27 74.579-66.187 88.098-116.586 6.14-22.933 7.399-43.199 7.399-55.875 0-3.789-.106-6.843-.243-9.152-50.91 6.828-83.55-22.125-95.25-34.984C88.551 47.21 55.91 76.164 5 69.336" style="fill:#261c66;fill-opacity:1;fill-rule:evenodd;stroke:none" transform="translate(-1.588 -.87)"/><path d="M9.73 76.031c.036 13.031 1.407 32.961 7.458 55.52 13.011 48.523 40.976 86.699 83.062 113.644 42.086-26.945 70.031-65.12 83.047-113.644 6.047-22.559 7.418-42.488 7.473-55.52-43.907 2.176-74.52-18.636-90.52-33.469-16.02 14.833-46.613 35.645-90.52 33.47" style="fill:#fff;fill-opacity:1;fill-rule:evenodd;stroke:none" transform="translate(-1.588 -.87)"/><path d="M101.32 98.29c-24.34 0-44.093 19.815-44.093 44.265 0 24.453 19.753 44.25 44.093 44.25 24.36 0 44.114-19.797 44.114-44.25 0-24.45-19.754-44.266-44.114-44.266m0 86.547c-23.27 0-42.125-18.938-42.125-42.281 0-23.36 18.856-42.297 42.125-42.297 23.27 0 42.145 18.937 42.145 42.297 0 23.343-18.875 42.28-42.145 42.28" style="fill:#261c66;fill-opacity:1;fill-rule:evenodd;stroke:none" transform="translate(-1.588 -.87)"/><path d="m101.188 210.074.863 1.742 1.918.282-1.39 1.351.32 1.914-1.711-.902-1.708.902.336-1.914-1.39-1.351 1.918-.282zm32.472-12.691-2.14-1.633.125-2.7-2.215 1.536-2.516-.977.77 2.59-1.692 2.117 2.688.055 1.465 2.27.902-2.551zm-16.058 7.969-2.141-1.633.129-2.7-2.219 1.52-2.516-.957.774 2.586-1.692 2.121 2.684.055 1.484 2.265.883-2.546zm-11.606-12.395-.601 3.02-2.817 1.199 2.688 1.515.28 3.059 2.255-2.082 2.984.676-1.277-2.797 1.558-2.66-3.043.375zm15.27-1.125-2.817 1.93-3.176-1.258.942 3.281-2.16 2.645 3.398.11 1.82 2.886 1.184-3.207 3.285-.86-2.683-2.101zm9.125.656-.996-3 1.917-2.531-3.175.02-1.801-2.61-.957 3.02-3.008.918 2.555 1.855-.055 3.172 2.535-1.875zm13.035-.449-2.688-1.672-.164-3.148-2.402 2.043-3.043-.825 1.203 2.926-1.73 2.645 3.136-.227 1.992 2.477.73-3.094zm-3.719-11.7-3.398.09-2.028-2.757-.941 3.281-3.25 1.07 2.816 1.93.02 3.414 2.687-2.082 3.246 1.031-1.144-3.207zm7.473-8.589-3.512 1.371-3.133-2.156.207 3.805-3.008 2.324 3.664.976 1.278 3.582 2.047-3.207 3.793-.09-2.387-2.945zm-43.493 31.2v2.214l-1.804 1.254 2.086.676.64 2.101 1.278-1.785 2.195.04-1.293-1.766.711-2.078-2.082.69zm-34.949-5.567 2.14-1.633-.128-2.7 2.219 1.536 2.515-.973-.77 2.586 1.688 2.117-2.683.055-1.485 2.27-.882-2.551zm16.055 7.969 2.14-1.633-.144-2.7 2.234 1.52 2.516-.957-.77 2.586 1.692 2.121-2.703.055-1.465 2.27-.902-2.551zm11.605-12.395.582 3.02 2.817 1.199-2.664 1.515-.301 3.059-2.234-2.082-3.004.676 1.293-2.793-1.575-2.664 3.06.375zm-15.265-1.125 2.816 1.93 3.172-1.254-.937 3.281 2.16 2.645-3.399.109-1.843 2.887-1.165-3.207-3.304-.864 2.703-2.097zm-9.13.656.977-3-1.898-2.531 3.156.02 1.805-2.606.957 3.016 3.023.918-2.554 1.859.054 3.168-2.535-1.875zm-13.03-.261 2.683-1.668.145-3.153 2.406 2.043 3.059-.844-1.2 2.946 1.727 2.644-3.137-.226-1.988 2.457-.75-3.074zm3.718-11.887 3.399.09 2.008-2.758.957 3.281 3.25 1.07-2.817 1.93-.02 3.414-2.702-2.082-3.25 1.031 1.164-3.207zm-7.496-8.59 3.532 1.367 3.136-2.156-.207 3.809 3.004 2.324-3.66.972-1.277 3.582-2.067-3.207-3.773-.09 2.383-2.94zm43.516 31.2v2.214l1.8 1.254-2.1.676-.622 2.097-1.297-1.78-2.176.038 1.278-1.761-.715-2.082 2.086.69zM101.754 77.57v.07zm9.238 4.012c-2.367 0-2.781-3.281-2.781-3.281s-.207 3.804-3.379 3.804c-2.95 0-3.078-3.878-3.078-4.46 0 .578-.129 4.46-3.082 4.46-3.172 0-3.379-3.804-3.379-3.804s-.414 3.281-2.762 3.281c-2.367 0-3.492-2.043-3.492-2.043l3.379 9.879h18.668l3.398-9.879s-1.125 2.043-3.492 2.043M103.52 74.645c0 .972-.79 1.761-1.766 1.761a1.76 1.76 0 0 1-1.766-1.761 1.765 1.765 0 1 1 3.532 0M96.965 75.75c0 .973-.79 1.762-1.766 1.762-.996 0-1.785-.79-1.785-1.762 0-.996.79-1.781 1.785-1.781.973 0 1.766.785 1.766 1.781M90.43 77.21c0 .978-.809 1.782-1.785 1.782a1.777 1.777 0 0 1-1.766-1.781c0-.973.789-1.781 1.766-1.781.976 0 1.785.804 1.785 1.78M106.559 75.75c0 .973.789 1.762 1.765 1.762.977 0 1.766-.79 1.766-1.762a1.765 1.765 0 1 0-3.531 0M113.094 77.21c0 .978.789 1.782 1.765 1.782.977 0 1.766-.805 1.766-1.781a1.78 1.78 0 0 0-1.766-1.781c-.976 0-1.765.804-1.765 1.78M101.32 100.258c-23.27 0-42.125 18.937-42.125 42.297 0 23.343 18.856 42.28 42.125 42.28 23.27 0 42.145-18.937 42.145-42.28 0-23.36-18.875-42.297-42.145-42.297m0 73.515c-17.164 0-31.101-13.984-31.101-31.218 0-17.25 13.937-31.235 31.101-31.235 17.184 0 31.118 13.985 31.118 31.235 0 17.234-13.934 31.218-31.118 31.218" style="fill:#e38f00;fill-opacity:1;fill-rule:evenodd;stroke:none" transform="translate(-1.588 -.87)"/><path d="M101.32 111.32c-17.164 0-31.101 13.985-31.101 31.235s13.937 31.218 31.101 31.218c17.184 0 31.118-13.968 31.118-31.218s-13.934-31.235-31.118-31.235m0 60.188c-15.925 0-28.847-12.977-28.847-28.953 0-15.993 12.922-28.97 28.847-28.97 15.946 0 28.864 12.978 28.864 28.97 0 15.976-12.918 28.953-28.864 28.953" style="fill:#261c66;fill-opacity:1;fill-rule:evenodd;stroke:none" transform="translate(-1.588 -.87)"/><path d="M101.32 171.508c-15.925 0-28.847-12.957-28.847-28.953 0-15.993 12.922-28.97 28.847-28.97 15.946 0 28.864 12.978 28.864 28.97 0 15.996-12.918 28.953-28.864 28.953" style="fill:#f8f5e8;fill-opacity:1;fill-rule:evenodd;stroke:none" transform="translate(-1.588 -.87)"/><path d="M129.152 142.555c0 15.414-12.449 27.922-27.832 27.922-15.363 0-27.812-12.508-27.812-27.922 0-15.43 12.449-27.938 27.812-27.938 15.383 0 27.832 12.508 27.832 27.938" style="fill:#261c66;fill-opacity:1;fill-rule:evenodd;stroke:none" transform="translate(-1.588 -.87)"/><path d="M100.645 119.477c-2.95 0-5.485.785-5.485.785l-4.637 7.761 5.184 6.356s4.77-.973 11.23 0l5.165-6.356-4.641-7.761s-2.535-.785-5.484-.785zM80.738 144.938s4.43.972 8.524.972c0 0 1.73 5.531 5.843 9.844 0 0-1.765 5.328-2.742 6.3 0 0-8.039 1.258-11.832-5.324-3.812-6.562-1.11-7.855.207-11.792M77.113 150.242c.32-1.816 2.516-6.074 2.516-6.074l-.035-.164c-.563-3.918.261-10.086.125-10.387-.125-.32-2.477-1.949-2.477-1.949s-.226.164-.547.656a25.7 25.7 0 0 0-2.082 10.145c0 2.492.356 4.894 1.012 7.18.734.843 1.484.601 1.484.601M80.68 132.148s3.457-3.765 7.906-4.441c0 0 3.59-5.457 4.773-7.574 0 0-1.523-1.762-2.218-2.27a25.7 25.7 0 0 0-12.43 10.574c-.492.864-.734 1.407-.734 1.407s1.164 1.594 2.703 2.304M106.879 136.145s4.601 7.312 4.996 9.093c0 0-1.277 4.836-5.71 9.489 0 0-1.708.144-3.7.222v.035h-2.309v-.035c-1.992-.07-3.703-.222-3.703-.222-4.43-4.653-5.707-9.489-5.707-9.489.395-1.781 4.996-9.093 4.996-9.093s3.438-.524 6.18-.524c2.723 0 4.957.524 4.957.524M121.867 144.938s-4.414.972-8.527.972c0 0-1.727 5.531-5.82 9.844 0 0 1.761 5.328 2.742 6.3 0 0 8.035 1.258 11.828-5.324 3.812-6.562 1.11-7.855-.223-11.792M125.508 150.242c-.32-1.816-2.516-6.094-2.516-6.094l.035-.144c.567-3.918-.261-10.086-.125-10.387.125-.32 2.477-1.949 2.477-1.949s.227.164.547.656a25.7 25.7 0 0 1 2.086 10.145c0 2.492-.36 4.89-1.016 7.18-.73.843-1.484.601-1.484.601M121.695 131.793s-3.285-3.582-7.53-4.219c0 0-3.4-5.176-4.524-7.199 0 0 1.445-1.668 2.12-2.156a24.46 24.46 0 0 1 11.813 10.05c.453.825.676 1.333.676 1.333s-1.086 1.515-2.555 2.191M92.965 163.688c-3.363-.036-8.172-1.426-8.172-1.426l.039 1.18a25.17 25.17 0 0 0 15.64 5.738v-1.727c-3.359-.262-7.511-3.766-7.511-3.766M117.828 162.281s-4.808 1.371-8.168 1.406c0 0-4.133 3.489-7.496 3.77v1.723a25.1 25.1 0 0 0 15.625-5.735zm0 0" style="fill:#f8f5e8;fill-opacity:1;fill-rule:evenodd;stroke:none" transform="translate(-1.588 -.87)"/><path d="M158.582 146.55c-.02-.956-.11-2.027-.32-3.245-1.13-6.578-6.535-10.14-6.535-10.14-.38-1.052.336-2.892.488-4.372.207-1.066-.188-1.8-.735-2.398a10 10 0 0 0-1.011-1.012c-.883-.863-1.13-1.82-.715-2.383s2.2 1.219 4.45 1.895c1.952.601 2.894-.547 2.894-.547-1.934.828-6.012-2.72-3.176-3.637 2.988-.953 2.855 2.363 2.855 2.363 1.07-2.625-.882-2.926-1.687-3.508-.809-.558-.02-2.53 1.914-1.668 1.953.864 2.742.637 2.742.637 1.48-.055 1.145-.09 2.274-.207.937-.09.843.996.843.996 1.914-3.039-2.593-2.195-2.593-2.195-1.708.035-1.239-1.48-1.239-1.48.09-.712.301-.919.301-.919.414-.75 1.297.266 3.832-.601 1.445-.504 1.559-1.328 1.559-1.328-4.34 2.023-4.168-1.52-4.133-1.86.035-.355.433-.843 1.351-1.18.942-.335 1.954-1.554 1.954-1.554.468-.562.863.39.378 1.2-.468.788-.582 2.925 1.372 2.757 1.82-.129 2.066-3.36 2.082-4.11-.055.79-.73 3.489-1.895 3.114-1.258-.41-.11-1.969-.11-1.969.864-1.46.883-2.625.208-3.449-.676-.824-2.102-.75-2.89.145-.79.902-1.243 1.183-1.767.75-.507-.434.32-1.012.696-1.051.375-.035.676-1.2.75-1.688.07-.504.242-.883.691-1.18.434-.3 1.41-2.214 2.238-1.05.825 1.144.938 2.195.938 2.195.582-5.234-4.04-3.828-4.04-3.828 1.224-2.285-.616-3.45-.616-3.45.375-3.394-2.535-4.46-2.535-4.46.601.336 2.984 2.472 1.894 3.543-1.086 1.05-2.91-.09-2.91-.09.187-2.121-.918-3.02-.918-3.02-1.598-.355-4.34 2.25-4.34 2.25s-.976-.488-3.738.09c-2.758.602-6.008 1.352-6.89 1.461-.884.11-2.274-.336-2.743-.262-.488.09-1.406.45-1.559 1.461-.144.996-.488 2.872.75 3.977 1.223 1.09 1.993.617 2.63.508 0 0 1.144-.488 1.577-.281.434.187 3.739 1.687 4.32 2.472.583.79.126 1.125-.921 1.707-1.031.602-3.34 1.781-5.125 2.328-1.766.543-3.758.84-4.414 1.555h-.02a3.1 3.1 0 0 0-.691.79c-.281.429-.64.73-1.016.917-1.031-1.371-1.914-2.703-2.441-3.394-.676-.883-1.238-1.258-2.387-.903-.316-.055-.71-.015-1.2.149-.62.222-1.108 1.254-1.952 1.293-.188.054-1.41 1.218-1.88 2.754-.468 1.519-1.163 2.925-1.687 4.144-.527 1.238-.527 3.637-.527 3.637-.508 1.312 1.164 4.203 1.164 4.203s.453-.281.828-.582c.13.281.242.469.242.469s.922-.582 1.223-.977c.3-.375.488-.785 1.2-1.144.714-.336 1.128-1.106 1.109-1.293-.036-.207-1.086-1.145-1.086-1.145-1.465-1.836-1.035-3.414-.828-4.312.226-.899 1.144-3.262 1.144-3.262.207-.375.488-.676.77-.883.02 0 .035.02.035.035.902.942 1.183 2.477 1.562 4.39.07 1.31.504 3.411 1.368 4.798.941 1.48.433 3.64.433 3.64-1.933 9.563 5.785 15.016 8.02 18.11 2.234 3.078-.055 4.445-2.047 7.953-1.88 3.281.996 8.734 2.027 11.453.281 1.031.563 2.082.75 2.703.602 1.875.809 2.078.32 3.035-.507.957-6.16 3.676-7.753 4.426-1.598.75-2.332 2.008-2.332 2.008-2.082 2.062-2.309 6.148-2.309 6.148 1.84-1.367 4.094-1.781 4.094-1.781.902-.863.562-3.074.562-3.074 1.016-.266 3.043-2.403 5.223-3.73 2.18-1.333 5.691-1.391 6.59-1.52.922-.11 1.07-.582.773-2.196-.164-.953-.094-3.43.016-4.93.976 1.372 1.43 3.243 2.574 4.989 1.86 2.848 1.914 4.762 1.86 6.129-.075 1.352-1.727 6.676-2.048 7.687s-1.953 1.915-1.953 1.915c-1.933.69-2.5 2.812-2.5 2.812.528.617 3.852.11 3.852.11.547.09 1.371-.508 1.371-.508.145-1.426 1.05-2.774 2.422-3.973 1.39-1.184.281-3.36.562-6.734s1.317-4.235 1.805-4.836c.469-.602.691-1.559-.129-2.383-.805-.844-1.746-2.063-2.535-5.043-.79-3 1.504-3.055 1.691-4.293.207-1.238 3.813-1.406 4.45-5.68 0 0 .394-.734.656-2.234.055-.016.11-.016.187-.035zm0 0" style="fill:#261c66;fill-opacity:1;fill-rule:evenodd;stroke:none" transform="translate(-1.588 -.87)"/><path d="M158.094 149.945c.844-.093 1.238.106 1.144 2.063-.074 1.93.356 2.379.883 2.64.524.247 1.145.301 2.14.903.997.617.075 2.21-.581 2.754-.637.547-1.727.414-2.575 1.218-.824.829.493 2.27 1.055 2.946.563.691.43.957.125 1.5-.281.523-1.125.937-1.07 2.215.11 2.379 2.273 2.773 3.984 2.96 1.332.126 1.406 1.012 1.387 1.368.3-2.157-1.106-2.586-1.672-2.739-.578-.144-1.969-.07-2.102-1.199-.187-1.515 1.125-2.023 1.653-2.191.547-.164.976-.488.547-1.278-.414-.77-.207-1.18.09-1.421.28-.227.34-.04.34-.04s.16-.222.183-.843c0-.617.492-.973.96-.973.47 0 .864.32 1.052-.144 0 0-.243-1.633.843-1.782 1.504-.207.434 1.422.434 1.422s1.125-.449.523-1.441c-.808-1.39-.75-2.403-.16-2.813.563-.414 1.461-.73 1.84-2.328.356-1.59-1.37-1.875-1.918-2.754-.523-.863.996-1.445.996-1.445-1.031-1.5-3.172-.824-4.129-.43-.941.41-2.52.11-1.937-.789.601-.898 1.918-.601 1.918-.601-1.336-1.313-3.082-.579-4.059-.188-.883.336-1.144.899-1.86.883zM43.777 149.7c.055.019.11.019.164.034.266 1.504.676 2.235.676 2.235.621 4.273 4.227 4.441 4.434 5.68.187 1.238 2.476 1.292 1.687 4.292-.785 2.98-1.726 4.2-2.535 5.043-.824.829-.601 1.786-.125 2.383.488.582 1.52 1.461 1.8 4.836.282 3.375-.804 5.551.563 6.735 1.371 1.199 2.274 2.546 2.426 3.972 0 0 .824.602 1.39.508 0 0 3.325.504 3.848-.11 0 0-.582-2.117-2.515-2.812 0 0-1.633-.898-1.953-1.914-.32-1.012-1.973-6.336-2.047-7.687-.055-1.368 0-3.282 1.86-6.13 1.144-1.745 1.597-3.62 2.57-4.988.109 1.5.21 3.977.02 4.93-.282 1.613-.126 2.082.769 2.195.921.125 4.414.188 6.593 1.52s4.207 3.469 5.239 3.73c0 0-.356 2.211.546 3.075 0 0 2.254.414 4.094 1.78 0 0-.207-4.085-2.308-6.148 0 0-.735-1.257-2.332-2.007-1.598-.75-7.246-3.47-7.735-4.426-.508-.953-.3-1.16.297-3.035.188-.621.488-1.668.75-2.7 1.035-2.718 3.906-8.175 2.047-11.457-2.008-3.507-4.3-4.875-2.063-7.949 2.254-3.094 9.954-8.55 8.02-18.113 0 0-.492-2.156.43-3.637.863-1.39 1.297-3.488 1.37-4.8.376-1.915.657-3.45 1.56-4.387 0-.02.019-.04.035-.04.28.208.566.508.773.883 0 0 .938 2.364 1.145 3.262.207.902.636 2.477-.81 4.313 0 0-1.07.937-1.085 1.144-.04.188.375.957 1.086 1.293.715.356.902.77 1.203 1.145.3.394 1.223.976 1.223.976s.11-.187.261-.469c.356.301.809.583.809.583s1.672-2.891 1.164-4.204c0 0 .016-2.398-.527-3.636-.524-1.22-1.219-2.625-1.688-4.145-.468-1.535-1.691-2.7-1.879-2.754-.843-.035-1.332-1.07-1.953-1.293-.488-.164-.883-.207-1.203-.144-1.144-.356-1.707.015-2.383.898-.527.692-1.41 2.024-2.441 3.395a2.6 2.6 0 0 1-1.016-.918 2.9 2.9 0 0 0-.695-.79h-.016c-.66-.71-2.629-1.011-4.414-1.554-1.785-.547-4.094-1.727-5.129-2.328-1.03-.578-1.5-.918-.898-1.703.562-.79 3.887-2.29 4.316-2.477.434-.207 1.559.281 1.559.281.64.11 1.41.582 2.648-.503 1.243-1.11.883-2.98.735-3.977-.145-1.012-1.07-1.367-1.543-1.461-.489-.074-1.86.375-2.742.262-.883-.11-4.149-.86-6.91-1.461-2.762-.582-3.72-.09-3.72-.09s-2.757-2.61-4.355-2.25c0 0-1.11.898-.922 3.016 0 0-1.8 1.144-2.91.093-1.09-1.07 1.317-3.207 1.914-3.547 0 0-2.93 1.07-2.554 4.465 0 0-1.82 1.16-.618 3.45 0 0-4.62-1.407-4.039 3.824 0 0 .11-1.051.942-2.192.824-1.164 1.8.746 2.234 1.051.45.297.617.672.691 1.18.094.488.395 1.648.774 1.687.375.035 1.184.617.676 1.051-.528.43-.977.145-1.766-.75-.789-.898-2.215-.977-2.89-.144-.676.824-.66 1.984.206 3.449 0 0 1.145 1.554-.109 1.968-1.164.375-1.84-2.324-1.898-3.113.02.75.265 3.977 2.086 4.106 1.972.164 1.84-1.97 1.37-2.754-.488-.805-.093-1.766.376-1.2 0 0 1.015 1.22 1.953 1.555.937.34 1.332.828 1.37 1.184.017.336.188 3.879-4.132 1.855 0 0 .09.825 1.559 1.332 2.515.864 3.398-.148 3.812.598 0 0 .207.207.301.918 0 0 .488 1.52-1.238 1.48 0 0-4.508-.843-2.594 2.196 0 0-.09-1.07.844-.996 1.129.109.789.148 2.273.207 0 0 .809.226 2.742-.637 1.953-.86 2.723 1.11 1.918 1.672-.808.582-2.761.879-1.691 3.504 0 0-.129-3.317 2.855-2.364 2.852.918-1.242 4.465-3.175 3.641 0 0 .941 1.14 2.894.543 2.25-.676 4.035-2.457 4.45-1.894.413.562.163 1.52-.716 2.382a10 10 0 0 0-1.011 1.012c-.547.602-.922 1.332-.735 2.398.164 1.481.864 3.32.489 4.372 0 0-5.407 3.562-6.535 10.144a22 22 0 0 0-.32 3.242zm0 0" style="fill:#261c66;fill-opacity:1;fill-rule:evenodd;stroke:none" transform="translate(-1.588 -.87)"/><path d="M44.191 147.414c-.714.016-.976-.547-1.859-.883-.977-.394-2.723-1.125-4.055.188 0 0 1.313-.301 1.914.617.582.883-.976 1.18-1.933.77-.942-.395-3.098-1.07-4.113.433 0 0 1.503.559.976 1.441-.547.883-2.273 1.165-1.918 2.758.379 1.594 1.277 1.91 1.86 2.305.566.414.64 1.445-.188 2.832-.602.996.527 1.445.527 1.445s-1.07-1.632.434-1.425c1.09.144.863 1.78.863 1.78.164.47.563.165 1.031.145.47 0 .958.356.977.973 0 .621.188.844.188.844s.054-.188.34.039c.28.242.488.656.07 1.426-.43.785 0 1.105.547 1.273.523.188 1.84.676 1.671 2.195-.144 1.125-1.52 1.051-2.12 1.2-.563.125-1.973.578-1.673 2.734-.02-.356.055-1.234 1.391-1.367 1.707-.188 3.867-.582 3.98-2.965.055-1.274-.789-1.688-1.07-2.211-.281-.543-.433-.805.125-1.5.582-.676 1.88-2.117 1.055-2.945-.848-.805-1.934-.672-2.574-1.22-.657-.542-1.578-2.136-.582-2.753.996-.602 1.632-.66 2.14-.902.547-.262.957-.711.883-2.66-.09-1.934.3-2.141 1.145-2.047zm0 0" style="fill:#261c66;fill-opacity:1;fill-rule:evenodd;stroke:none" transform="translate(-1.588 -.87)"/><path d="m82.235.87 4.02 9.093 9.972 1.07-7.418 6.617 2.067 9.805-8.602-4.984-8.695 4.984 2.082-9.71-7.438-6.712 9.899-1.015zM116.777.937l4.02 9.094 9.972 1.07-7.418 6.617 2.067 9.805-8.602-4.985-8.695 4.985 2.082-9.711-7.438-6.711 9.899-1.016zm0 0" style="fill:#e38f00;fill-opacity:1;fill-rule:evenodd;stroke:none" transform="translate(-1.588 -.87)"/><path d="M74.238 161.21c.66 1.052.903 2.063.75 3.02q-.273 1.55-1.648 2.418c-.582.38-1.203.547-1.899.563-.828 0-1.539-.242-2.195-.746l-.055.578c-.02.227.036.508.16.695.227.317.415.43.754.504 0 .11-.039.242-.164.32-.433.32-1.148.145-1.691-.675-1.031-1.5.207-2.285-.563-3.395-.414-.597-1.015-.879-1.519-.71-.055-.376.016-.602.207-.731.223-.149.488-.164.883 0h.055c-.04-.301-.02-.621.035-.918.09-.528.28-.996.601-1.426a3.8 3.8 0 0 1 1.012-.977 3.74 3.74 0 0 1 1.937-.578c1.313 0 2.442.692 3.34 2.063m39.442 11.66a.9.9 0 0 0-.47.145c-.206.19-.284.34-.32.582-.074.02-.163-.02-.226-.11-.227-.3-.144-.824.395-1.273.996-.828 1.539-.074 2.289-.696.394-.32.601-.691.468-1.03.266-.071.414-.016.508.109.11.144.301.636-.035 1.445a1 1 0 0 1 .242-.074q.533-.106 1.258-.16c.266 0 .434-.04.527-.075q.084-.03.16-.207h.165l-.055 1.875h-.16a.55.55 0 0 0-.149-.207c-.035-.035-.11-.054-.242-.09-.242-.054-.601-.035-1.016.036a4 4 0 0 0-1.125.32c-.675.3-1.144.75-1.425 1.332-.301.656-.301 1.332.02 2.023a2.28 2.28 0 0 0 1.48 1.313c.62.164 1.297.094 2.027-.242.379-.145.695-.356 1.016-.602.3-.242.562-.484.75-.746l-.395-.863-1.613.715a.6.6 0 0 0-.188.16.7.7 0 0 0-.02.3l-.144.055-.675-1.48.144-.074c.09.093.164.164.246.187.055.02.125 0 .242-.035l3.063-1.406.07.164c-.09.07-.164.144-.187.222-.02.055 0 .149.035.246l.601 1.31q.053.14.164.206c.055.02.145.02.282 0l.054.11c-.918 1.257-1.953 2.156-3.097 2.683-1.055.465-2.012.598-2.895.41-1.125-.242-1.933-.918-2.422-2.008-.468-1.027-.468-2.023-.015-2.96.297-.602.77-1.126 1.406-1.575-.281 0-.543-.02-.75-.035m-40.453-11.008q-.534-.873-1.406-1.125c-.696-.187-1.352-.074-1.993.32-.656.41-1.03.973-1.144 1.688-.09.598.035 1.18.414 1.762.375.578.844.937 1.426 1.105q.509.136 1.07.055c.32-.055.621-.188.902-.356.676-.433 1.051-.996 1.149-1.687.09-.602-.04-1.18-.414-1.762m3.324 9.938-2.309-2.215-1.054.394c-.125.036-.223.11-.282.145-.109.129-.09.281.02.488l-.11.11-1.69-1.633.109-.106a.63.63 0 0 0 .34.106q.137 0 .449-.106l5.632-2.101c.164-.055.301-.13.38-.207.109-.11.109-.262.015-.45l.11-.128 1.824 1.746-.11.125c-.187-.11-.34-.09-.453 0a.8.8 0 0 0-.144.32l-1.801 5.773c-.074.243-.11.434-.11.547 0 .125.055.242.125.375l-.109.11-1.895-1.82.125-.11c.188.129.34.129.47 0a.8.8 0 0 0 .128-.3zm.336-.996.902-2.586-2.554.992zm4.941 3.488-1.164 2.023c-.054.094-.054.164-.054.246.015.07.07.145.164.243l-.094.144-1.914-1.105.074-.149c.125.02.223.04.297 0a.27.27 0 0 0 .164-.16l2.988-5.14a.5.5 0 0 0 .07-.243.48.48 0 0 0-.164-.242l.094-.144 3.848 2.21q.708.422 1.07.731c.242.207.434.453.563.695.148.297.187.617.164.938a2.2 2.2 0 0 1-.32.918c-.583.992-1.465 1.258-2.684.785l.223 2.363c.039.414.093.695.128.844a.8.8 0 0 0 .282.34l-.09.144-2.215-1.293.07-.129c.164.055.282.036.32-.035.036-.054.036-.226.02-.508l-.226-2.511zm.582-.996 2.082 1.199c.301.164.528.3.66.34.145.055.282.09.41.09.301.02.548-.13.735-.47.188-.296.207-.6.035-.843a1.2 1.2 0 0 0-.281-.32c-.11-.09-.32-.223-.637-.41l-2.066-1.18Zm10.29 6.656-3.098-.879-.73.824c-.094.11-.165.207-.192.282-.035.144.035.28.242.41l-.035.148-2.274-.637.055-.164c.13.016.266 0 .34-.054.09-.035.207-.145.355-.32l4-4.462c.13-.144.207-.265.227-.375.055-.148-.02-.28-.191-.414l.039-.144 2.441.691-.055.149c-.226 0-.34.07-.379.203a.6.6 0 0 0 0 .355l1.11 5.946c.055.261.094.449.164.543.055.109.144.187.281.265l-.035.145-2.535-.715.055-.145c.222.02.355-.054.41-.222a.74.74 0 0 0-.016-.34zm-.165-1.05-.41-2.7-1.805 2.082zm10.426.148c.79.316 1.164.879 1.145 1.687-.016.656-.262 1.14-.73 1.5-.247.16-.509.297-.829.375-.32.07-.695.09-1.164.09l-4.863-.129.015-.16a.55.55 0 0 0 .266-.129c.035-.035.07-.125.07-.223l.149-5.945c0-.11-.02-.207-.055-.242a.6.6 0 0 0-.266-.145v-.164l4.809.125c.469 0 .844.04 1.129.13.281.07.504.187.73.355.395.336.602.804.582 1.422-.02.695-.355 1.183-.996 1.464m-4.433-.656 2.722.055c.414.015.696-.04.864-.149.191-.125.28-.336.3-.636 0-.297-.07-.504-.242-.637-.164-.11-.472-.184-.883-.207l-2.722-.07zm-.07 3.074 2.628.07c.489 0 .844-.054 1.07-.187.243-.144.376-.394.376-.75.02-.336-.09-.598-.34-.77-.207-.124-.563-.206-1.051-.222l-2.648-.055zm12.128-1.632-3.152.562-.3 1.07c-.036.145-.056.262-.036.336.016.145.164.227.395.242l.035.165-2.309.414-.039-.164a.5.5 0 0 0 .281-.188c.074-.074.13-.227.192-.45l1.613-5.776c.055-.184.074-.317.055-.43-.036-.145-.145-.242-.356-.281l-.035-.145 2.477-.45.039.161c-.207.094-.282.207-.266.355q.03.14.164.301l3.625 4.856c.145.207.281.355.375.414.094.07.227.11.379.11l.016.144-2.57.465-.04-.16c.227-.075.32-.188.281-.376 0-.054-.054-.164-.144-.28zm-.601-.86-1.559-2.25-.715 2.64zm15.176-8.12 1.671 1.913c.055.07.13.125.207.125.075.02.165 0 .282-.055l.11.13-1.673 1.445-.11-.13a.44.44 0 0 0 .11-.261c0-.074-.035-.144-.11-.227l-3.905-4.5a.46.46 0 0 0-.207-.125.7.7 0 0 0-.282.07l-.11-.124 4.735-4.125c.09-.074.125-.13.145-.207a.7.7 0 0 0-.074-.282l.129-.109 1.183 1.367-.129.11a.44.44 0 0 0-.262-.11q-.11-.001-.226.11l-3.324 2.886 1.11 1.258 2.16-1.875c.089-.074.124-.148.124-.226.02-.075 0-.164-.054-.282l.128-.109 1.165 1.352-.13.105c-.105-.07-.183-.105-.261-.105-.074 0-.145.035-.242.105zm5.914-6.712.093 1.371 1.52 1.106c.09.054.164.07.262.07a.7.7 0 0 0 .246-.125l.144.09-1.297 1.8-.125-.09c.035-.109.055-.206.035-.28s-.07-.13-.144-.207l-4.883-3.434c-.074-.055-.144-.09-.226-.07-.07 0-.164.054-.262.125l-.129-.09 1.277-1.82.13.109c-.036.11-.055.207-.036.281.016.055.07.129.145.188l2.007 1.425-.242-3.73c-.02-.164-.035-.281-.09-.32-.074-.055-.191-.016-.34.129l-.144-.11 1.707-2.383.129.09c-.055.11-.074.207-.094.266 0 .054.02.261.04.578l.035.508.164 3.093 4.242-.355a6 6 0 0 0 .808-.11.9.9 0 0 0 .375-.242l.13.09-1.598 2.27-.125-.11c.07-.164.07-.28 0-.32-.036-.035-.207-.035-.47-.016zM89.453 107.063l-.469-1.387.106-.04c.074.075.11.13.148.15.035.015.07.015.125.015a.6.6 0 0 1 .094-.055l.297-.207-.07-.223a.22.22 0 0 0-.11-.144c-.054-.04-.11-.04-.226-.04l-.036-.124 1.579-.524.035.106c-.074.054-.13.11-.145.164-.02.055-.02.11.016.187l1.484 4.387q.029.111.11.164c.054.02.125.035.222.035l.04.11-1.579.547-.035-.13a.6.6 0 0 0 .145-.144.37.37 0 0 0 0-.207l-1.13-3.281-.316.207a.6.6 0 0 0-.148.144.8.8 0 0 0-.035.227zm5.352 1.761.543-1.387.109.036v.144c.02.11.11.207.3.301.145.055.337.11.563.125.246.035.453.035.66.02.43-.075.805-.227 1.086-.508.188-.164.32-.375.375-.598.075-.227.094-.508.075-.863q-.34.423-.73.617a2.5 2.5 0 0 1-.942.281q-.871.111-1.52-.222c-.265-.11-.469-.301-.636-.528a1.8 1.8 0 0 1-.301-.765c-.055-.582.11-1.07.543-1.465.414-.41.976-.637 1.691-.73.77-.09 1.39.019 1.879.335.32.227.582.528.77.903.187.375.3.77.355 1.18.11.843-.055 1.558-.523 2.155-.47.602-1.13.958-1.993 1.07-.3.036-.582.055-.828.036a5 5 0 0 1-.898-.207 2 2 0 0 0-.266-.035c-.035.015-.09.035-.125.07-.02.04-.055.055-.055.074zm1.894-4.633c-.394.055-.71.192-.937.434-.188.187-.282.41-.242.676.035.261.16.465.41.597.265.164.62.227 1.015.164.41-.035.73-.187.957-.41q.28-.311.227-.675a.71.71 0 0 0-.395-.618c-.265-.164-.62-.226-1.035-.164m8.903 1.668c.808.282 1.183.75 1.128 1.387-.039.434-.226.809-.601 1.09q-.68.561-2.14.45c-.677-.056-1.223-.188-1.637-.435-.262-.125-.489-.355-.657-.617a1.7 1.7 0 0 1-.207-.883c.055-.656.489-1.05 1.332-1.199q-.955-.478-.898-1.238c.015-.375.207-.672.504-.918.433-.316 1.11-.43 1.992-.375q.904.081 1.52.414c.226.11.414.281.566.504.125.227.207.469.16.73-.035.528-.39.883-1.07 1.09m-1.258-1.875c-.375-.035-.676 0-.902.09-.223.11-.356.266-.375.473s.09.375.3.504c.207.129.508.207.883.242q.563.03.903-.106c.222-.093.355-.246.375-.453 0-.207-.075-.375-.301-.504-.207-.144-.508-.226-.883-.242m-.164 2.23c-.469-.038-.824.016-1.125.188a.61.61 0 0 0-.34.524.66.66 0 0 0 .34.62c.226.16.562.282.996.317.469.02.844-.035 1.125-.184.207-.128.32-.3.34-.527a.68.68 0 0 0-.32-.637c-.247-.164-.583-.261-1.016-.296m8.621-.454-3.285-.937a.4.4 0 0 0-.188 0q-.082.03-.164.164l-.129-.035.395-1.371.129.039c0 .105.015.183.035.222q.053.056.164.11l4.168 1.18c.074.019.145.019.191 0 .055-.036.11-.07.16-.16l.11.035-.281 1.011-3.473 3.207c-.144.125-.207.207-.227.262-.019.074.036.145.165.246l-.036.125-1.898-.543.035-.11a1 1 0 0 0 .32-.07c.094-.039.207-.128.36-.265zm0 0" style="fill:#fff;fill-opacity:1;fill-rule:nonzero;stroke:none" transform="translate(-1.588 -.87)"/></svg>